<svg width="24" height="24" viewBox="0 0 24 24" fill="none" xmlns="http://www.w3.org/2000/svg">
  <path d="M20.2112 12.659L12.6475 5.97594C12.4402 5.82052 12.1812 5.82052 11.974 5.97594L4.41025 12.659C4.35845 12.7108 4.30664 12.7626 4.30664 12.8662V20.7408C4.30664 20.8962 4.41025 20.9998 4.56567 20.9998H9.90173C10.0572 20.9998 10.1608 20.8962 10.1608 20.7408V15.7155C10.1608 15.1457 10.627 14.6794 11.1969 14.6794H13.4246C13.9944 14.6794 14.4607 15.1457 14.4607 15.7155V20.7408C14.4607 20.8962 14.5643 20.9998 14.7197 20.9998H20.0558C20.2112 20.9998 20.3148 20.8962 20.3148 20.7408V12.8662C20.263 12.7626 20.263 12.7108 20.2112 12.659Z" fill="#8EA1AE" />
  <path d="M22.2834 10.0689L13.6836 2.50511C12.9065 1.83163 11.7149 1.83163 10.9378 2.50511L2.33795 10.0689C1.9235 10.4315 1.8717 11.105 2.28615 11.5194C2.64879 11.8821 3.21866 11.8821 3.63311 11.5712L11.6113 4.47376C12.0258 4.11111 12.5956 4.11111 12.9583 4.47376L20.9883 11.5194C21.3509 11.8821 21.9726 11.8303 22.3352 11.4676C22.6979 11.105 22.6979 10.4315 22.2834 10.0689Z" fill="#8EA1AE" />
</svg>