<svg width="16" height="18" viewBox="0 0 16 18" fill="none" xmlns="http://www.w3.org/2000/svg">
<path fill-rule="evenodd" clip-rule="evenodd" d="M2 18C2 18 0.5 18 0.5 16.5C0.5 15 2 10.5 8 10.5C14 10.5 15.5 15 15.5 16.5C15.5 18 14 18 14 18H2ZM8 9C9.19347 9 10.3381 8.52589 11.182 7.68198C12.0259 6.83807 12.5 5.69347 12.5 4.5C12.5 3.30653 12.0259 2.16193 11.182 1.31802C10.3381 0.474106 9.19347 0 8 0C6.80653 0 5.66193 0.474106 4.81802 1.31802C3.97411 2.16193 3.5 3.30653 3.5 4.5C3.5 5.69347 3.97411 6.83807 4.81802 7.68198C5.66193 8.52589 6.80653 9 8 9Z" fill="#8EA1AE"/>
</svg>
